<?xml version="1.0" encoding="UTF-8"?><svg id="b" xmlns="http://www.w3.org/2000/svg" width="84.67mm" height="42.03mm" viewBox="0 0 240 119.15"><g id="c"><path d="M127.52,119.15c-12.99,0-22.29-6.37-27.65-18.95-4.08-9.59-5.67-22.19-7.51-36.78-1.11-8.81-2.25-17.92-4.06-27.63-2.2-11.85-5.7-15.54-14.96-15.79-6.47-.2-11.02,3.91-13.59,12.12-1.65,5.27-2.77,10.42-3.96,15.88-1.53,7.03-3.11,14.3-5.94,22.26-7.38,20.78-29.97,24.13-40.89,22.99-5.49-.57-9.48-5.48-8.92-10.98.57-5.47,5.46-9.45,10.92-8.92.72.06,16.1,1.3,20.04-9.79,2.4-6.76,3.78-13.1,5.24-19.82,1.23-5.64,2.49-11.48,4.41-17.6C45.92,9.37,58.36-.39,73.88.01c28.25.76,32.64,24.37,34.09,32.12,1.91,10.28,3.15,20.11,4.24,28.79,4.02,31.97,6.69,38.43,15.73,38.22,4.93-.1,7.63-2.43,8.22-7.12l2.07-81.46c.1-3.95,2.52-7.47,6.17-8.99,3.65-1.51,7.85-.73,10.72,2l64.89,61.77V29.29c0-5.52,4.48-10,10-10s10,4.48,10,10v59.37c0,4-2.38,7.62-6.06,9.19-3.68,1.58-7.94.81-10.83-1.95l-65.46-62.31-1.51,59.37c0,.26-.02.51-.05.77-1.53,14.89-12.68,25.11-27.75,25.41-.27,0-.54,0-.82,0Z" fill="#0a0a0a"/></g></svg>